<svg xmlns="http://www.w3.org/2000/svg" width="430" height="430" style="width:100%;height:100%;transform:translate3d(0,0,0);content-visibility:visible" viewBox="0 0 430 430"><defs><clipPath id="a"><path d="M0 0h430v430H0z"/></clipPath><clipPath id="e"><path d="M0 0h430v430H0z"/></clipPath><clipPath id="d"><path d="M0 0h430v430H0z"/></clipPath><clipPath id="c"><path d="M0 0h430v430H0z"/></clipPath><clipPath id="b"><path d="M0 0h430v430H0z"/></clipPath></defs><g clip-path="url(#a)"><g clip-path="url(#b)" style="display:none"><g style="display:none"><path class="primary"/><path class="primary" style="mix-blend-mode:multiply"/></g><g style="display:none"><path class="primary"/><path class="primary" style="mix-blend-mode:multiply"/></g></g><g clip-path="url(#c)" style="display:none"><g style="display:none"><path class="primary"/><path class="primary" style="mix-blend-mode:multiply"/></g><g style="display:none"><path class="primary"/><path class="primary" style="mix-blend-mode:multiply"/></g></g><g clip-path="url(#d)" style="display:block" transform="rotate(90 215 215)"><g fill="#4BB3FD" style="display:block"><path d="M213.091 90.146a2.998 2.998 0 0 1 4.242 0L396.94 269.75a2.998 2.998 0 0 1 0 4.242l-55.862 55.862a2.998 2.998 0 0 1-4.242 0L215.212 208.23 93.588 329.854a2.998 2.998 0 0 1-4.242 0l-55.862-55.861a3 3 0 0 1 0-4.243L213.091 90.146z" class="primary"/><path d="M119.854-2.121a2.998 2.998 0 0 1 0 4.242L1.77 0l-121.624-121.624a2.998 2.998 0 0 1 0-4.242l55.861-55.862a3 3 0 0 1 4.243 0L119.854-2.121z" class="primary" opacity=".5" style="mix-blend-mode:multiply" transform="rotate(-90 212.606 -2.606)"/></g><g style="display:none"><path class="primary"/><path class="primary" style="mix-blend-mode:multiply"/></g></g><g clip-path="url(#e)" style="display:none"><path class="primary"/><path class="primary" style="mix-blend-mode:multiply"/></g></g></svg>